<svg width="60" height="60" viewBox="0 0 60 60" fill="none" xmlns="http://www.w3.org/2000/svg">
<path d="M45.5492 0.549174C46.2814 -0.183058 47.4686 -0.183058 48.2008 0.549174L59.4508 11.7992C60.1831 12.5314 60.1831 13.7186 59.4508 14.4508L21.9509 51.9508C21.7713 52.1303 21.5572 52.2715 21.3214 52.3659L2.57141 59.8658C1.875 60.1444 1.0796 59.9811 0.549229 59.4508C0.018862 58.9204 -0.144402 58.125 0.134161 57.4286L7.63416 38.6786C7.72846 38.4428 7.86967 38.2287 8.04922 38.0491L45.5492 0.549174ZM42.0267 9.37499L50.625 17.9733L55.4734 13.125L46.875 4.52665L42.0267 9.37499ZM47.9734 20.625L39.375 12.0266L15 36.4016V37.5H16.875C17.9106 37.5 18.75 38.3394 18.75 39.375V41.25H20.625C21.6606 41.25 22.5 42.0894 22.5 43.125V45H23.5984L47.9734 20.625ZM11.3687 40.0329L10.973 40.4287L5.24078 54.7592L19.5713 49.027L19.9671 48.6313C19.2561 48.3648 18.75 47.679 18.75 46.875V45H16.875C15.8395 45 15 44.1605 15 43.125V41.25H13.125C12.321 41.25 11.6352 40.7439 11.3687 40.0329Z" fill="#90BAE7"/>
</svg>
