<svg width="60" height="60" viewBox="0 0 60 60" fill="none" xmlns="http://www.w3.org/2000/svg">
<path d="M18.75 15C17.7145 15 16.875 15.8395 16.875 16.875C16.875 17.9105 17.7145 18.75 18.75 18.75H41.25C42.2855 18.75 43.125 17.9105 43.125 16.875C43.125 15.8395 42.2855 15 41.25 15H18.75Z" fill="#90BAE7"/>
<path d="M16.875 24.375C16.875 23.3395 17.7145 22.5 18.75 22.5H41.25C42.2855 22.5 43.125 23.3395 43.125 24.375C43.125 25.4105 42.2855 26.25 41.25 26.25H18.75C17.7145 26.25 16.875 25.4105 16.875 24.375Z" fill="#90BAE7"/>
<path d="M18.75 30C17.7145 30 16.875 30.8395 16.875 31.875C16.875 32.9105 17.7145 33.75 18.75 33.75H41.25C42.2855 33.75 43.125 32.9105 43.125 31.875C43.125 30.8395 42.2855 30 41.25 30H18.75Z" fill="#90BAE7"/>
<path d="M18.75 37.5C17.7145 37.5 16.875 38.3395 16.875 39.375C16.875 40.4105 17.7145 41.25 18.75 41.25H30C31.0355 41.25 31.875 40.4105 31.875 39.375C31.875 38.3395 31.0355 37.5 30 37.5H18.75Z" fill="#90BAE7"/>
<path d="M7.5 7.5C7.5 3.35786 10.8579 0 15 0H45C49.1421 0 52.5 3.35786 52.5 7.5V52.5C52.5 56.6421 49.1421 60 45 60H15C10.8579 60 7.5 56.6421 7.5 52.5V7.5ZM45 3.75H15C12.9289 3.75 11.25 5.42893 11.25 7.5V52.5C11.25 54.5711 12.9289 56.25 15 56.25H45C47.0711 56.25 48.75 54.5711 48.75 52.5V7.5C48.75 5.42893 47.0711 3.75 45 3.75Z" fill="#90BAE7"/>
</svg>
