<svg width="60" height="60" viewBox="0 0 60 60" fill="none" xmlns="http://www.w3.org/2000/svg">
<path d="M40.7008 30.5492C41.4331 31.2814 41.4331 32.4686 40.7008 33.2008L29.4508 44.4508C29.0992 44.8025 28.6223 45 28.125 45C27.6277 45 27.1508 44.8025 26.7992 44.4508L21.1742 38.8258C20.4419 38.0936 20.4419 36.9064 21.1742 36.1742C21.9064 35.4419 23.0936 35.4419 23.8258 36.1742L28.125 40.4734L38.0492 30.5492C38.7814 29.8169 39.9686 29.8169 40.7008 30.5492Z" fill="#90BAE7"/>
<path d="M13.125 0C14.1605 0 15 0.839466 15 1.875V3.75H45V1.875C45 0.839466 45.8395 0 46.875 0C47.9105 0 48.75 0.839466 48.75 1.875V3.75H52.5C56.6421 3.75 60 7.10786 60 11.25V52.5C60 56.6421 56.6421 60 52.5 60H7.5C3.35787 60 0 56.6421 0 52.5V11.25C0 7.10786 3.35786 3.75 7.5 3.75H11.25V1.875C11.25 0.839466 12.0895 0 13.125 0ZM7.5 7.5C5.42893 7.5 3.75 9.17893 3.75 11.25V52.5C3.75 54.5711 5.42893 56.25 7.5 56.25H52.5C54.5711 56.25 56.25 54.5711 56.25 52.5V11.25C56.25 9.17893 54.5711 7.5 52.5 7.5H7.5Z" fill="#90BAE7"/>
<path d="M9.375 15C9.375 13.9645 10.2145 13.125 11.25 13.125H48.75C49.7855 13.125 50.625 13.9645 50.625 15V18.75C50.625 19.7855 49.7855 20.625 48.75 20.625H11.25C10.2145 20.625 9.375 19.7855 9.375 18.75V15Z" fill="#90BAE7"/>
</svg>
