<svg width="60" height="60" viewBox="0 0 60 60" fill="none" xmlns="http://www.w3.org/2000/svg">
<path d="M3.75 10.6033C7.06868 9.21665 11.8271 7.72281 16.4538 7.25614C21.4425 6.75296 25.674 7.49272 28.125 10.075V46.622C24.6192 44.6343 20.1774 44.3615 16.0775 44.7751C11.651 45.2216 7.1914 46.5042 3.75 47.8163V10.6033ZM31.875 10.075C34.326 7.49272 38.5575 6.75296 43.5462 7.25614C48.1729 7.72281 52.9313 9.21665 56.25 10.6033V47.8163C52.8086 46.5042 48.349 45.2216 43.9225 44.7751C39.8226 44.3615 35.3808 44.6343 31.875 46.622V10.075ZM30 6.68637C26.3066 3.51164 20.9506 3.03355 16.0775 3.52508C10.3996 4.09777 4.6672 6.04619 1.09912 7.66805C0.429755 7.9723 0 8.63972 0 9.37498V50.625C0 51.2625 0.32391 51.8563 0.859902 52.2015C1.39589 52.5466 2.07052 52.5957 2.65088 52.3319C5.9578 50.8288 11.2879 49.0272 16.4538 48.5062C21.7337 47.9736 26.1655 48.8333 28.5359 51.7963C28.8917 52.2411 29.4304 52.5 30 52.5C30.5696 52.5 31.1083 52.2411 31.4641 51.7963C33.8345 48.8333 38.2663 47.9736 43.5462 48.5062C48.7121 49.0272 54.0422 50.8288 57.3491 52.3319C57.9295 52.5957 58.6041 52.5466 59.1401 52.2015C59.6761 51.8563 60 51.2625 60 50.625V9.37498C60 8.63972 59.5702 7.9723 58.9009 7.66805C55.3328 6.04619 49.6004 4.09777 43.9225 3.52508C39.0494 3.03355 33.6934 3.51164 30 6.68637Z" fill="#90BAE7"/>
</svg>
