<svg width="60" height="67" viewBox="0 0 60 67" fill="none" xmlns="http://www.w3.org/2000/svg">
<path d="M30.0001 0C30.9143 0 31.7278 0.58002 32.0259 1.44431L34.4835 8.57143H55.7143C58.0812 8.57143 60 10.4902 60 12.8571V42.8571C60 45.2241 58.0812 47.1429 55.7143 47.1429H47.784L53.4544 63.5872C53.8402 64.706 53.246 65.9257 52.1272 66.3115C51.0084 66.6973 49.7886 66.1031 49.4028 64.9843L43.2506 47.1429H32.1429V60C32.1429 61.1835 31.1835 62.1429 30.0001 62.1429C28.8166 62.1429 27.8572 61.1835 27.8572 60V47.1429H16.7495L10.5973 64.9843C10.2115 66.1031 8.99176 66.6973 7.87294 66.3115C6.75412 65.9257 6.15989 64.706 6.54569 63.5872L12.2161 47.1429H4.28572C1.91878 47.1429 0 45.2241 0 42.8571V12.8571C0 10.4902 1.91878 8.57143 4.28571 8.57143H25.5166L27.9743 1.44431C28.2723 0.58002 29.0858 0 30.0001 0ZM4.28571 12.8571V42.8571H55.7143V12.8571H4.28571Z" fill="#90BAE7"/>
</svg>
