<svg width="60" height="60" viewBox="0 0 60 60" fill="none" xmlns="http://www.w3.org/2000/svg">
<path d="M11.25 54.375C8.1434 54.375 5.625 51.8566 5.625 48.75V11.25C5.625 8.1434 8.1434 5.625 11.25 5.625H41.25C42.2855 5.625 43.125 6.46447 43.125 7.5C43.125 8.53553 42.2855 9.375 41.25 9.375H11.25C10.2145 9.375 9.375 10.2145 9.375 11.25V48.75C9.375 49.7855 10.2145 50.625 11.25 50.625H48.75C49.7855 50.625 50.625 49.7855 50.625 48.75V30C50.625 28.9645 51.4645 28.125 52.5 28.125C53.5355 28.125 54.375 28.9645 54.375 30V48.75C54.375 51.8566 51.8566 54.375 48.75 54.375H11.25Z" fill="#90BAE7"/>
<path d="M31.3258 38.8258L57.5758 12.5758C58.3081 11.8436 58.3081 10.6564 57.5758 9.92417C56.8436 9.19194 55.6564 9.19194 54.9242 9.92417L30 34.8484L20.0758 24.9242C19.3436 24.1919 18.1564 24.1919 17.4242 24.9242C16.6919 25.6564 16.6919 26.8436 17.4242 27.5758L28.6742 38.8258C29.4064 39.5581 30.5936 39.5581 31.3258 38.8258Z" fill="#90BAE7"/>
</svg>
